<svg width="80" height="80" viewBox="0 0 80 80" fill="none" xmlns="http://www.w3.org/2000/svg">
<g clip-path="url(#clip0_152_707)">
<path d="M77.3334 6.6665H3.33334C1.49999 6.6665 0 8.16649 0 9.99984V61.3333H80V9.33311C80 7.83312 78.8334 6.6665 77.3334 6.6665Z" fill="#1A4060"/>
<path d="M0 61.3335V67.6668C0 69.5002 1.49999 71.0002 3.33334 71.0002H76.6667C78.5 71.0002 80 69.5002 80 67.6668V61.3335H0Z" fill="#FAFAFA"/>
<path d="M39.9999 67.9997C41.0124 67.9997 41.8332 67.1789 41.8332 66.1664C41.8332 65.1538 41.0124 64.333 39.9999 64.333C38.9873 64.333 38.1665 65.1538 38.1665 66.1664C38.1665 67.1789 38.9873 67.9997 39.9999 67.9997Z" fill="#D4D4D8"/>
<path d="M55.3331 70.9995H24.6665V77.3328H55.3331V70.9995Z" fill="#D4D4D8"/>
<path d="M61.6665 77.3335H18.1665V80.0001H61.6665V77.3335Z" fill="#FAFAFA"/>
<path d="M55.3331 71H24.6665V73.4999H55.3331V71Z" fill="#A1A1AA"/>
<path d="M74.6669 11.5H5.3335V56.4999H74.6669V11.5Z" fill="#8FC5EA"/>
<path d="M52.667 11.4998V6.6665H55.1669V11.4998H52.667Z" fill="#1A4060"/>
<path d="M24.8335 11.4998V6.6665H27.3334V11.4998H24.8335Z" fill="#1A4060"/>
<path d="M50.6669 0H29.3335C28.1669 0 27.3335 0.833255 27.3335 2.00004V40.0001C27.3335 41.1667 28.1669 42.0001 29.3335 42.0001H50.6669C51.8335 42.0001 52.6669 41.1669 52.6669 40.0001V2.00004C52.6669 0.833255 51.8335 0 50.6669 0Z" fill="#1A4060"/>
<path d="M50.5166 4.01318H29.5166V36.1798H50.5166V4.01318Z" fill="white"/>
<path d="M40.0002 40.6668C40.9206 40.6668 41.6668 39.9206 41.6668 39.0002C41.6668 38.0797 40.9206 37.3335 40.0002 37.3335C39.0797 37.3335 38.3335 38.0797 38.3335 39.0002C38.3335 39.9206 39.0797 40.6668 40.0002 40.6668Z" fill="#A1A1AA"/>
<path d="M42.8333 1.5H37.1666C36.8332 1.5 36.6665 1.66668 36.6665 2.00005C36.6665 2.33341 36.8332 2.5001 37.1666 2.5001H42.8333C43.1667 2.5001 43.3333 2.33341 43.3333 2.00005C43.3332 1.66668 43.1667 1.5 42.8333 1.5Z" fill="#A1A1AA"/>
<path d="M39.4999 6.5H31.1665V14.8334H39.4999V6.5Z" fill="#FF8502"/>
<path d="M48.8333 6.5H40.5V14.8334H48.8333V6.5Z" fill="#FF8502"/>
<path d="M48.8331 15.8335H31.1665V22.8335H48.8331V15.8335Z" fill="#FF8502"/>
<path d="M48.8331 24.5H31.1665V28.3334H48.8331V24.5Z" fill="#D4D4D8"/>
<path d="M48.8331 30.5H31.1665V34.3334H48.8331V30.5Z" fill="#D4D4D8"/>
</g>
<defs>
<clipPath id="clip0_152_707">
<rect width="80" height="80" fill="white"/>
</clipPath>
</defs>
</svg>
