<svg width="81" height="81" viewBox="0 0 81 81" fill="none" xmlns="http://www.w3.org/2000/svg">
<g clip-path="url(#clip0_152_798)">
<path d="M77.625 0H3.37501C1.51874 0 0 1.51874 0 3.37501V77.625C0 79.4813 1.51874 81 3.37501 81H77.625C79.4813 81 81 79.4813 81 77.625V3.37501C81 1.51874 79.4813 0 77.625 0Z" fill="#D4D4D8"/>
<path d="M75.06 12.9531H5.87256V75.0531H75.06V12.9531Z" fill="white"/>
<path d="M70.875 8.60636C72.0866 8.60636 73.0688 7.62416 73.0688 6.41255C73.0688 5.20095 72.0866 4.21875 70.875 4.21875C69.6633 4.21875 68.6812 5.20095 68.6812 6.41255C68.6812 7.62416 69.6633 8.60636 70.875 8.60636Z" fill="#FAFAFA"/>
<path d="M63.7876 8.60636C64.9992 8.60636 65.9814 7.62416 65.9814 6.41255C65.9814 5.20095 64.9992 4.21875 63.7876 4.21875C62.576 4.21875 61.5938 5.20095 61.5938 6.41255C61.5938 7.62416 62.576 8.60636 63.7876 8.60636Z" fill="#FAFAFA"/>
<path d="M56.5312 8.60636C57.7428 8.60636 58.725 7.62416 58.725 6.41255C58.725 5.20095 57.7428 4.21875 56.5312 4.21875C55.3196 4.21875 54.3374 5.20095 54.3374 6.41255C54.3374 7.62416 55.3196 8.60636 56.5312 8.60636Z" fill="#FAFAFA"/>
<path d="M70.2 34.2563H32.0625V38.1377H70.2V34.2563Z" fill="#53A7DD"/>
<path d="M70.2 27.3374H32.0625V31.2187H70.2V27.3374Z" fill="#53A7DD"/>
<path d="M63.45 67.1626H53.1562V71.0439H63.45V67.1626Z" fill="#D4D4D8"/>
<path d="M70.0313 60.0752H53.1562V63.9565H70.0313V60.0752Z" fill="#D4D4D8"/>
<path d="M42.3563 67.1626H32.0625V71.0439H42.3563V67.1626Z" fill="#D4D4D8"/>
<path d="M48.9375 60.0752H32.0625V63.9565H48.9375V60.0752Z" fill="#D4D4D8"/>
<path d="M21.0936 67.1626H10.7998V71.0439H21.0936V67.1626Z" fill="#D4D4D8"/>
<path d="M27.6748 60.0752H10.7998V63.9565H27.6748V60.0752Z" fill="#D4D4D8"/>
<path d="M27.6748 43.0312H10.7998V55.1813H27.6748V43.0312Z" fill="#FF8502"/>
<path d="M48.9375 43.0312H32.0625V55.1813H48.9375V43.0312Z" fill="#FF8502"/>
<path d="M70.0313 43.0312H53.1562V55.1813H70.0313V43.0312Z" fill="#FF8502"/>
<path d="M27.8252 17.5347H10.9502V38.1222H27.8252V17.5347Z" fill="#FF8502"/>
<path d="M24.9752 28.1811L26.1564 27.5061L25.8189 26.1561L24.4689 25.9873C24.3002 25.6498 24.1314 25.3123 23.9626 24.9749L24.6377 23.7937L23.6253 22.7813L22.444 23.4563C22.1065 23.2876 21.769 23.1188 21.4316 22.95L21.0941 21.2625L19.5753 21.0938L19.069 22.275C18.7315 22.275 18.2254 22.275 17.8878 22.4437L16.8754 21.4313L15.5254 22.1063L15.6942 23.4563C15.5254 23.6251 15.3567 23.6251 15.1879 23.7939C15.0191 23.9626 14.8504 24.1314 14.8504 24.3001L13.5004 24.1314L12.8253 25.4814L13.8378 26.4938C13.669 26.8313 13.669 27.3375 13.669 27.675L12.4878 28.3501L12.6566 29.8688L14.0065 30.0376C14.1753 30.3751 14.3441 30.7126 14.5128 31.05L13.8378 32.2312L14.8502 33.2436L16.0314 32.5686C16.3689 32.7373 16.7065 32.9061 17.0438 33.0749L17.2126 34.4248L18.7313 34.5936L19.2376 33.4124C19.5752 33.4124 20.0813 33.4124 20.4188 33.2436L21.4313 34.2561L22.7813 33.581V32.231C22.95 32.0623 23.1188 32.0623 23.2876 31.8935C23.4563 31.7247 23.6251 31.556 23.6251 31.3872L24.9751 31.556L25.6501 30.206L24.6377 29.1936C24.8065 29.0248 24.9752 28.5187 24.9752 28.1811ZM19.2376 31.0498C17.5501 31.0498 16.0314 29.6999 16.0314 27.8436C16.0314 26.9999 16.3689 26.1561 17.0438 25.6498C17.5501 25.1435 18.3938 24.6374 19.2376 24.6374C20.9251 24.6374 22.4439 25.9873 22.4439 27.8436C22.4439 28.6873 22.1064 29.5311 21.4314 30.0374C20.9251 30.7123 20.2502 31.0498 19.2376 31.0498Z" fill="white"/>
</g>
<defs>
<clipPath id="clip0_152_798">
<rect width="81" height="81" fill="white"/>
</clipPath>
</defs>
</svg>
