<svg width="142" height="37" viewBox="0 0 142 37" fill="none" xmlns="http://www.w3.org/2000/svg">
<path d="M58.0507 22.5628V26.767H44.6245V10.2334H57.751V14.4376H49.9769V16.3744H56.8056V20.3891H49.9769V22.5617H58.0517L58.0507 22.5628Z" fill="#2980B9"/>
<path d="M93.1776 22.5628V26.767H79.7515V10.2334H92.8779V14.4376H85.1038V16.3744H91.9326V20.3891H85.1038V22.5617H93.1787L93.1776 22.5628Z" fill="#2980B9"/>
<path d="M60.6797 10.2334H68.6389C70.4381 10.2334 72.0259 10.5682 73.4024 11.2368C74.7788 11.9065 75.8483 12.8625 76.6096 14.106C77.3709 15.3505 77.7516 16.8147 77.7516 18.4996C77.7516 20.1845 77.3709 21.6487 76.6096 22.8933C75.8483 24.1379 74.7788 25.0939 73.4024 25.7636C72.0259 26.4332 70.4381 26.767 68.6389 26.767H60.6797V10.2334ZM68.4086 22.4207C69.5768 22.4207 70.5117 22.0783 71.2109 21.3936C71.9102 20.7089 72.2604 19.7442 72.2604 18.4996C72.2604 17.2551 71.9102 16.2915 71.2109 15.6068C70.5106 14.9221 69.5768 14.5797 68.4086 14.5797H66.1246V22.4217H68.4086V22.4207Z" fill="#2980B9"/>
<path d="M111.542 10.2334V26.767H107.066L100.93 19.2554V26.767H95.6235V10.2334H100.099L106.236 17.7449V10.2334H111.542Z" fill="#2980B9"/>
<path d="M120.246 10.2334H125.691V26.767H120.246V10.2334Z" fill="#FF8502"/>
<path d="M131.826 14.556H127.096V10.2334H142V14.556H137.27V26.767H131.826V14.556Z" fill="#FF8502"/>
<path d="M18.0688 11.7726L21.3549 15.1359L22.9975 13.4542L26.2825 10.0909L22.9975 6.72754L19.7124 10.0909L18.0688 11.7726Z" fill="#2980B9"/>
<path d="M29.5674 13.4544L26.2824 16.8178L22.9974 20.1822L19.7123 23.5455L16.4262 26.9089L13.1412 23.5455L16.4262 20.1822L18.0688 18.4995L14.7837 15.1361L13.1412 16.8178L9.85616 20.1822L6.57112 16.8178L9.85616 13.4544L13.1412 10.0911L16.4262 6.72776L19.7123 3.36334L16.4262 0L13.1412 3.36334L9.85616 6.72776L6.57112 10.0911L3.28504 13.4544L0 16.8178L3.28504 20.1822L6.57112 23.5455L9.85616 26.9089L13.1412 30.2722L16.4262 33.6367L19.7123 30.2722L22.9974 26.9089L26.2824 23.5455L29.5674 20.1822L32.8535 16.8178L29.5674 13.4544Z" fill="#2980B9"/>
<path d="M34.4965 18.5001L18.0698 35.3184L19.7123 37L36.139 20.1818L34.4965 18.5001Z" fill="#FF8502"/>
</svg>
