<svg width="80" height="81" viewBox="0 0 80 81" fill="none" xmlns="http://www.w3.org/2000/svg">
<g clip-path="url(#clip0_152_771)">
<path d="M42.8336 64.3335V70.1668C42.0003 69.6667 41.0002 69.3335 40.0003 69.3335C39.0003 69.3335 38.0002 69.6669 37.167 70.1668V64.3335H42.8336Z" fill="#A1A1AA"/>
<path d="M76.6667 0.5H3.33334C1.49999 0.5 0 1.99999 0 3.83334V16.1666C0 18 1.49999 19.4999 3.33334 19.4999H76.6667C78.5 19.4999 80 18 80 16.1666V3.83334C80 1.99999 78.5 0.5 76.6667 0.5Z" fill="#D4D4D8"/>
<path d="M76.6667 22.8335H3.33334C1.49999 22.8335 0 24.3335 0 26.1668V38.5001C0 40.3335 1.49999 41.8334 3.33334 41.8334H76.6667C78.5 41.8334 80 40.3335 80 38.5001V26.1668C80 24.3335 78.5 22.8335 76.6667 22.8335Z" fill="#D4D4D8"/>
<path d="M76.6667 45.3335H3.33334C1.49999 45.3335 0 46.8335 0 48.6667V60.9999C0 62.8333 1.49999 64.3333 3.33334 64.3333H76.6667C78.5 64.3333 80 62.8333 80 60.9999V48.6667C80 46.6668 78.5 45.3335 76.6667 45.3335Z" fill="#D4D4D8"/>
<path d="M14.9998 72.1665C13.4998 72.1665 12.1665 73.4998 12.1665 74.9998C12.1665 76.4998 13.4998 77.8331 14.9998 77.8331H35.1665C34.6665 76.9997 34.3333 75.9997 34.3333 74.9998C34.3333 73.9999 34.6666 72.9998 35.1665 72.1665H14.9998Z" fill="#A1A1AA"/>
<path d="M64.9996 72.1665H44.833C45.3331 72.9998 45.6663 73.9999 45.6663 74.9998C45.6663 75.9997 45.3329 76.9998 44.833 77.8331H64.9996C66.4996 77.8331 67.8329 76.4998 67.8329 74.9998C67.8329 73.3331 66.4996 72.1665 64.9996 72.1665Z" fill="#A1A1AA"/>
<path d="M40.0001 80.5001C43.0377 80.5001 45.5001 78.0377 45.5001 75.0001C45.5001 71.9625 43.0377 69.5 40.0001 69.5C36.9625 69.5 34.5 71.9625 34.5 75.0001C34.5 78.0377 36.9625 80.5001 40.0001 80.5001Z" fill="#D4D4D8"/>
<path d="M70.3332 13.1668C72.0821 13.1668 73.4998 11.749 73.4998 10.0002C73.4998 8.25126 72.0821 6.8335 70.3332 6.8335C68.5843 6.8335 67.1665 8.25126 67.1665 10.0002C67.1665 11.749 68.5843 13.1668 70.3332 13.1668Z" fill="#FF8502"/>
<path d="M61.3332 13.1668C63.0821 13.1668 64.4998 11.749 64.4998 10.0002C64.4998 8.25126 63.0821 6.8335 61.3332 6.8335C59.5843 6.8335 58.1665 8.25126 58.1665 10.0002C58.1665 11.749 59.5843 13.1668 61.3332 13.1668Z" fill="#FAFAFA"/>
<path d="M52.5002 13.1668C54.249 13.1668 55.6668 11.749 55.6668 10.0002C55.6668 8.25126 54.249 6.8335 52.5002 6.8335C50.7513 6.8335 49.3335 8.25126 49.3335 10.0002C49.3335 11.749 50.7513 13.1668 52.5002 13.1668Z" fill="white"/>
<path d="M70.3332 35.5003C72.0821 35.5003 73.4998 34.0825 73.4998 32.3336C73.4998 30.5848 72.0821 29.167 70.3332 29.167C68.5843 29.167 67.1665 30.5848 67.1665 32.3336C67.1665 34.0825 68.5843 35.5003 70.3332 35.5003Z" fill="#FF8502"/>
<path d="M61.3332 35.5003C63.0821 35.5003 64.4998 34.0825 64.4998 32.3336C64.4998 30.5848 63.0821 29.167 61.3332 29.167C59.5843 29.167 58.1665 30.5848 58.1665 32.3336C58.1665 34.0825 59.5843 35.5003 61.3332 35.5003Z" fill="#FAFAFA"/>
<path d="M52.5002 35.5003C54.249 35.5003 55.6668 34.0825 55.6668 32.3336C55.6668 30.5848 54.249 29.167 52.5002 29.167C50.7513 29.167 49.3335 30.5848 49.3335 32.3336C49.3335 34.0825 50.7513 35.5003 52.5002 35.5003Z" fill="white"/>
<path d="M70.3332 57.9998C72.0821 57.9998 73.4998 56.5821 73.4998 54.8332C73.4998 53.0843 72.0821 51.6665 70.3332 51.6665C68.5843 51.6665 67.1665 53.0843 67.1665 54.8332C67.1665 56.5821 68.5843 57.9998 70.3332 57.9998Z" fill="#FF8502"/>
<path d="M61.3332 57.9998C63.0821 57.9998 64.4998 56.5821 64.4998 54.8332C64.4998 53.0843 63.0821 51.6665 61.3332 51.6665C59.5843 51.6665 58.1665 53.0843 58.1665 54.8332C58.1665 56.5821 59.5843 57.9998 61.3332 57.9998Z" fill="#FAFAFA"/>
<path d="M52.5002 57.9998C54.249 57.9998 55.6668 56.5821 55.6668 54.8332C55.6668 53.0843 54.249 51.6665 52.5002 51.6665C50.7513 51.6665 49.3335 53.0843 49.3335 54.8332C49.3335 56.5821 50.7513 57.9998 52.5002 57.9998Z" fill="white"/>
<path d="M42.8332 64.3335H37.1665V66.8334H42.8332V64.3335Z" fill="#A1A1AA"/>
<circle cx="20.5" cy="19.5" r="21.5" fill="#F4F4F5"/>
<path d="M7.05077 19.5C7.05077 24.8297 10.1508 29.42 14.6338 31.6019L8.21923 14.0273C7.44897 15.749 7.05081 17.6138 7.05077 19.5ZM20.5 32.9492C22.0619 32.9492 23.5642 32.675 24.9711 32.1861L24.8758 32.0073L20.7384 20.6803L16.7085 32.4008C17.9008 32.7584 19.1766 32.9492 20.5 32.9492ZM22.3481 13.1927L27.2127 27.6553L28.56 23.1723C29.1323 21.3123 29.5734 19.9769 29.5734 18.8203C29.5734 17.1511 28.9773 16.0065 28.4766 15.1242C27.785 14.0035 27.1531 13.0615 27.1531 11.9646C27.1531 10.7246 28.0831 9.58 29.4184 9.58H29.5853C27.1072 7.30497 23.8641 6.04516 20.5 6.05077C18.2725 6.05036 16.0799 6.60367 14.1194 7.66094C12.1588 8.71823 10.4919 10.2463 9.26847 12.1077L10.1269 12.1315C11.5338 12.1315 13.7039 11.9527 13.7039 11.9527C14.4431 11.9169 14.5265 12.9781 13.7992 13.0615C13.7992 13.0615 13.0719 13.1569 12.2492 13.1927L17.1615 27.7627L20.1066 18.9397L18.0081 13.1927C17.5381 13.1668 17.0689 13.127 16.6012 13.0735C15.8738 13.0258 15.9573 11.9169 16.6846 11.9527C16.6846 11.9527 18.9023 12.1315 20.2258 12.1315C21.6327 12.1315 23.8027 11.9527 23.8027 11.9527C24.53 11.9169 24.6253 12.9781 23.8981 13.0615C23.8981 13.0615 23.1708 13.145 22.3481 13.1927ZM27.2603 31.125C29.295 29.942 30.9836 28.2457 32.1572 26.2058C33.3311 24.1658 33.9489 21.8535 33.9492 19.5C33.9492 17.1631 33.3531 14.9692 32.3039 13.0496C32.517 15.1615 32.1972 17.2931 31.3739 19.2497L27.2603 31.125ZM20.5 35C16.3892 35 12.4467 33.3669 9.53984 30.4602C6.63303 27.5533 5 23.6109 5 19.5C5 15.3892 6.63303 11.4467 9.53984 8.53984C12.4467 5.63303 16.3892 4 20.5 4C24.6109 4 28.5533 5.63303 31.4602 8.53984C34.3669 11.4467 36 15.3892 36 19.5C36 23.6109 34.3669 27.5533 31.4602 30.4602C28.5533 33.3669 24.6109 35 20.5 35Z" fill="#2980B9"/>
</g>
<defs>
<clipPath id="clip0_152_771">
<rect width="80" height="80" fill="white" transform="translate(0 0.5)"/>
</clipPath>
</defs>
</svg>
