<svg width="80" height="82" viewBox="0 0 80 82" fill="none" xmlns="http://www.w3.org/2000/svg">
<g clip-path="url(#clip0_152_737)">
<path d="M66.6668 81.5001H17.0001V66.8188H66.6668C66.8335 66.8188 67.1669 66.8188 67.3335 66.9876C67.5002 66.9876 67.8336 67.1564 67.8336 67.1564L68.3336 67.4939L75.167 71.544L79.8335 74.2438L75.1669 76.9437L68.3335 80.9938L67.8334 81.3313C67.6668 81.5001 67.5001 81.5001 67.3334 81.5001C67.1669 81.5001 67.0002 81.5001 66.6668 81.5001Z" fill="#FF8502"/>
<path d="M68.3333 71.2063H16.9999V66.8188H66.6667C66.8333 66.8188 67.1667 66.8188 67.3334 66.9876C67.5001 66.9876 67.8334 67.1564 67.8334 67.1564L68.3335 67.4939V71.2063H68.3333Z" fill="#8FC5EA"/>
<path d="M66.6668 81.5002H17.0001V77.1128H68.3335V80.8253L67.8334 81.1629C67.6668 81.3316 67.5001 81.3316 67.3334 81.3316C67.1669 81.5002 67.0002 81.5002 66.6668 81.5002Z" fill="#8FC5EA"/>
<path d="M75.3334 76.9438V71.375L80 74.2437L75.3334 76.9438Z" fill="#1A4060"/>
<path d="M3.33321 66.8188H12.6665V81.5001H3.33321C1.49986 81.5001 -0.00012207 79.9813 -0.00012207 78.1251V70.1939C-0.00012207 68.3376 1.49986 66.8188 3.33321 66.8188Z" fill="#FF8502"/>
<path d="M17.0001 71.2061H68.3335V77.1122H17.0001V71.2061Z" fill="#2980B9"/>
<path d="M12.6333 66.7344H17.1333V81.4156H12.6333V66.7344Z" fill="#F4F4F5"/>
<path d="M3.33334 65.1315H76.6667C78.5 65.1315 80 63.6128 80 61.7565V13.3252H0V61.7565C0 63.6128 1.49998 65.1315 3.33334 65.1315Z" fill="#F4F4F5"/>
<path d="M4.10484 17.4355H75.7715V60.8043H4.10484V17.4355Z" fill="white"/>
<path d="M0 0.5H80V13.325H0V0.5Z" fill="#D4D4D8"/>
<path d="M60.3338 9.10636C59.1371 9.10636 58.167 8.12416 58.167 6.91255C58.167 5.70095 59.1371 4.71875 60.3338 4.71875C61.5304 4.71875 62.5005 5.70095 62.5005 6.91255C62.5005 8.12416 61.5304 9.10636 60.3338 9.10636Z" fill="#FAFAFA"/>
<path d="M67.5003 9.10636C66.3036 9.10636 65.3336 8.12416 65.3336 6.91255C65.3336 5.70095 66.3036 4.71875 67.5003 4.71875C68.6969 4.71875 69.667 5.70095 69.667 6.91255C69.667 8.12416 68.6969 9.10636 67.5003 9.10636Z" fill="#FAFAFA"/>
<path d="M74.4998 9.10636C73.3031 9.10636 72.3331 8.12416 72.3331 6.91255C72.3331 5.70095 73.3031 4.71875 74.4998 4.71875C75.6964 4.71875 76.6665 5.70095 76.6665 6.91255C76.6665 8.12416 75.6964 9.10636 74.4998 9.10636Z" fill="#FF8502"/>
<path d="M5.49998 4.71875H37.8333C38.9999 4.71875 40 5.73119 40 6.91255C40 8.09392 39.0001 9.10636 37.8333 9.10636H5.33329C4.16667 9.10636 3.16658 8.09392 3.16658 6.91255C3.33326 5.73135 4.33319 4.71875 5.49998 4.71875Z" fill="#FF8502"/>
<path d="M7.4999 20.9189H47.6665V24.8003H7.4999V20.9189Z" fill="#D4D4D8"/>
<path d="M7.4999 29.3564H47.6665V33.2378H7.4999V29.3564Z" fill="#D4D4D8"/>
<path d="M7.4999 37.625H47.6665V41.5063H7.4999V37.625Z" fill="#D4D4D8"/>
<path d="M7.50003 46.0625H72.5V49.9438H7.50003V46.0625Z" fill="#D4D4D8"/>
<path d="M7.50003 54.5H72.5V58.3813H7.50003V54.5Z" fill="#D4D4D8"/>
<path d="M61.3332 20.9189H65.5L72.5 41.5064H68L66 35.6002H60.8333L58.8333 41.5064H54.1666L61.3332 20.9189ZM64.8332 31.8876L63.4999 27.669V27.5002V27.669L62.1666 31.719H64.8332V31.8876Z" fill="#1A4060"/>
</g>
<defs>
<clipPath id="clip0_152_737">
<rect width="80" height="81" fill="white" transform="matrix(-1 0 0 1 80 0.5)"/>
</clipPath>
</defs>
</svg>
